# xmcd
#
# Track frame offsets: 
#        150
#        23627
#        40477
#        69397
#        102572
#        127745
#        149430
#        182435
#        213155
#        234455
#        263155
#        281002
#        296902
#
# Disc length: 4310 seconds
#
# Revision: 1
# Processed by: cddbd v1.5.2PL0 Copyright (c) Steve Scherf et al.
# Submitted via: ExactAudioCopy v0.99pb5
#
DISCID=c110d40d
DTITLE=Joni Janak With Carl Fontana - The Wind
DYEAR=1900
DGENRE=Jazz Link Enterprises
TTITLE0=The Wind
TTITLE1=Chega De Saudade (No More Blues)
TTITLE2=Where Do You Start
TTITLE3=I Concentrate On You
TTITLE4=Night Town
TTITLE5=With A Song In My Heart
TTITLE6=Close Enough For Love
TTITLE7=I Have A Feeling I've Been Here Before
TTITLE8=The Way You Look Tonight
TTITLE9=Trouble With Hello Is Goodbye
TTITLE10=Only You
TTITLE11=Cinnamon and Clove
TTITLE12=Music Is Forever
EXTD=
EXTT0=
EXTT1=
EXTT2=
EXTT3=
EXTT4=
EXTT5=
EXTT6=
EXTT7=
EXTT8=
EXTT9=
EXTT10=
EXTT11=
EXTT12=
PLAYORDER=
